<mxfile host="65bd71144e">
    <diagram id="pt88CGt4KrrBIa9byYeV" name="Page-1">
        <mxGraphModel dx="4986" dy="2313" grid="0" gridSize="10" guides="1" tooltips="1" connect="1" arrows="1" fold="1" page="0" pageScale="1" pageWidth="3300" pageHeight="4681" background="none" math="0" shadow="1">
            <root>
                <mxCell id="0"/>
                <mxCell id="1" parent="0"/>
                <mxCell id="5104" style="edgeStyle=orthogonalEdgeStyle;html=1;exitX=0;exitY=0.5;exitDx=0;exitDy=0;entryX=0.5;entryY=0;entryDx=0;entryDy=0;fontSize=15;" parent="1" source="2" target="4862" edge="1">
                    <mxGeometry relative="1" as="geometry"/>
                </mxCell>
                <mxCell id="5215" style="edgeStyle=orthogonalEdgeStyle;html=1;exitX=0;exitY=0.5;exitDx=0;exitDy=0;entryX=0.5;entryY=1;entryDx=0;entryDy=0;strokeColor=default;" parent="1" source="2" target="5214" edge="1">
                    <mxGeometry relative="1" as="geometry"/>
                </mxCell>
                <mxCell id="5244" style="edgeStyle=orthogonalEdgeStyle;html=1;exitX=0.5;exitY=0;exitDx=0;exitDy=0;entryX=0.5;entryY=1;entryDx=0;entryDy=0;" edge="1" parent="1" source="2" target="11">
                    <mxGeometry relative="1" as="geometry"/>
                </mxCell>
                <mxCell id="5245" style="edgeStyle=orthogonalEdgeStyle;html=1;exitX=0.5;exitY=0;exitDx=0;exitDy=0;entryX=0.5;entryY=1;entryDx=0;entryDy=0;" edge="1" parent="1" source="2" target="18">
                    <mxGeometry relative="1" as="geometry"/>
                </mxCell>
                <mxCell id="5246" style="edgeStyle=orthogonalEdgeStyle;html=1;exitX=0.5;exitY=0;exitDx=0;exitDy=0;entryX=0.5;entryY=1;entryDx=0;entryDy=0;" edge="1" parent="1" source="2" target="9">
                    <mxGeometry relative="1" as="geometry"/>
                </mxCell>
                <mxCell id="5247" style="edgeStyle=orthogonalEdgeStyle;html=1;exitX=0.5;exitY=0;exitDx=0;exitDy=0;entryX=0.5;entryY=1;entryDx=0;entryDy=0;" edge="1" parent="1" source="2" target="10">
                    <mxGeometry relative="1" as="geometry"/>
                </mxCell>
                <mxCell id="5248" style="edgeStyle=orthogonalEdgeStyle;html=1;exitX=0.5;exitY=0;exitDx=0;exitDy=0;entryX=0.5;entryY=1;entryDx=0;entryDy=0;" edge="1" parent="1" source="2" target="8">
                    <mxGeometry relative="1" as="geometry"/>
                </mxCell>
                <mxCell id="5249" style="edgeStyle=orthogonalEdgeStyle;html=1;exitX=0.5;exitY=0;exitDx=0;exitDy=0;entryX=0.5;entryY=1;entryDx=0;entryDy=0;" edge="1" parent="1" source="2" target="25">
                    <mxGeometry relative="1" as="geometry"/>
                </mxCell>
                <mxCell id="5250" style="edgeStyle=orthogonalEdgeStyle;html=1;exitX=0.5;exitY=0;exitDx=0;exitDy=0;entryX=0.5;entryY=1;entryDx=0;entryDy=0;" edge="1" parent="1" source="2" target="27">
                    <mxGeometry relative="1" as="geometry"/>
                </mxCell>
                <mxCell id="5253" style="edgeStyle=orthogonalEdgeStyle;html=1;exitX=0.5;exitY=0;exitDx=0;exitDy=0;entryX=0.5;entryY=1;entryDx=0;entryDy=0;" edge="1" parent="1" source="2" target="23">
                    <mxGeometry relative="1" as="geometry"/>
                </mxCell>
                <mxCell id="5254" style="edgeStyle=orthogonalEdgeStyle;html=1;exitX=0.5;exitY=0;exitDx=0;exitDy=0;entryX=0.5;entryY=1;entryDx=0;entryDy=0;" edge="1" parent="1" source="2" target="318">
                    <mxGeometry relative="1" as="geometry"/>
                </mxCell>
                <mxCell id="5255" style="edgeStyle=orthogonalEdgeStyle;html=1;exitX=0.5;exitY=0;exitDx=0;exitDy=0;entryX=0.5;entryY=1;entryDx=0;entryDy=0;" edge="1" parent="1" source="2" target="12">
                    <mxGeometry relative="1" as="geometry"/>
                </mxCell>
                <mxCell id="5262" style="edgeStyle=orthogonalEdgeStyle;html=1;exitX=0.5;exitY=1;exitDx=0;exitDy=0;entryX=0.5;entryY=0;entryDx=0;entryDy=0;" edge="1" parent="1" source="2" target="5227">
                    <mxGeometry relative="1" as="geometry"/>
                </mxCell>
                <mxCell id="2" value="User" style="rounded=1;whiteSpace=wrap;html=1;" parent="1" vertex="1">
                    <mxGeometry x="-577.13" y="-383" width="120" height="60" as="geometry"/>
                </mxCell>
                <mxCell id="5275" style="edgeStyle=orthogonalEdgeStyle;html=1;exitX=0.5;exitY=1;exitDx=0;exitDy=0;entryX=0.5;entryY=0;entryDx=0;entryDy=0;" edge="1" parent="1" source="3" target="5271">
                    <mxGeometry relative="1" as="geometry"/>
                </mxCell>
                <mxCell id="5276" style="edgeStyle=orthogonalEdgeStyle;html=1;exitX=0.5;exitY=1;exitDx=0;exitDy=0;entryX=0.5;entryY=0;entryDx=0;entryDy=0;" edge="1" parent="1" source="3" target="5272">
                    <mxGeometry relative="1" as="geometry"/>
                </mxCell>
                <mxCell id="5277" style="edgeStyle=orthogonalEdgeStyle;html=1;exitX=0.5;exitY=1;exitDx=0;exitDy=0;entryX=0.5;entryY=0;entryDx=0;entryDy=0;" edge="1" parent="1" source="3" target="5273">
                    <mxGeometry relative="1" as="geometry"/>
                </mxCell>
                <mxCell id="5278" style="edgeStyle=orthogonalEdgeStyle;html=1;exitX=0.5;exitY=1;exitDx=0;exitDy=0;entryX=0.5;entryY=0;entryDx=0;entryDy=0;" edge="1" parent="1" source="3" target="5274">
                    <mxGeometry relative="1" as="geometry"/>
                </mxCell>
                <mxCell id="5279" style="edgeStyle=orthogonalEdgeStyle;html=1;exitX=1;exitY=0.5;exitDx=0;exitDy=0;entryX=0;entryY=0.5;entryDx=0;entryDy=0;" edge="1" parent="1" source="3" target="41">
                    <mxGeometry relative="1" as="geometry"/>
                </mxCell>
                <mxCell id="5280" style="edgeStyle=orthogonalEdgeStyle;html=1;exitX=1;exitY=0.5;exitDx=0;exitDy=0;entryX=0;entryY=0.5;entryDx=0;entryDy=0;" edge="1" parent="1" source="3" target="141">
                    <mxGeometry relative="1" as="geometry"/>
                </mxCell>
                <mxCell id="5281" style="edgeStyle=orthogonalEdgeStyle;html=1;exitX=1;exitY=0.5;exitDx=0;exitDy=0;entryX=0;entryY=0.5;entryDx=0;entryDy=0;" edge="1" parent="1" source="3" target="5236">
                    <mxGeometry relative="1" as="geometry"/>
                </mxCell>
                <mxCell id="5282" style="edgeStyle=orthogonalEdgeStyle;html=1;exitX=1;exitY=0.5;exitDx=0;exitDy=0;entryX=0;entryY=0.5;entryDx=0;entryDy=0;" edge="1" parent="1" source="3" target="421">
                    <mxGeometry relative="1" as="geometry"/>
                </mxCell>
                <mxCell id="5283" style="edgeStyle=orthogonalEdgeStyle;html=1;exitX=1;exitY=0.5;exitDx=0;exitDy=0;entryX=0.003;entryY=0.435;entryDx=0;entryDy=0;entryPerimeter=0;" edge="1" parent="1" source="3" target="5233">
                    <mxGeometry relative="1" as="geometry"/>
                </mxCell>
                <mxCell id="5284" style="edgeStyle=orthogonalEdgeStyle;html=1;exitX=1;exitY=0.5;exitDx=0;exitDy=0;entryX=0;entryY=0.5;entryDx=0;entryDy=0;" edge="1" parent="1" source="3" target="48">
                    <mxGeometry relative="1" as="geometry"/>
                </mxCell>
                <mxCell id="5285" style="edgeStyle=orthogonalEdgeStyle;html=1;exitX=0.5;exitY=1;exitDx=0;exitDy=0;entryX=0.5;entryY=0;entryDx=0;entryDy=0;" edge="1" parent="1" source="3" target="5237">
                    <mxGeometry relative="1" as="geometry"/>
                </mxCell>
                <mxCell id="5287" style="edgeStyle=orthogonalEdgeStyle;html=1;exitX=1;exitY=0.5;exitDx=0;exitDy=0;entryX=0;entryY=0.5;entryDx=0;entryDy=0;" edge="1" parent="1" source="3" target="5235">
                    <mxGeometry relative="1" as="geometry"/>
                </mxCell>
                <mxCell id="5289" style="edgeStyle=orthogonalEdgeStyle;html=1;exitX=0.5;exitY=1;exitDx=0;exitDy=0;entryX=0.5;entryY=0;entryDx=0;entryDy=0;" edge="1" parent="1" source="3" target="5288">
                    <mxGeometry relative="1" as="geometry"/>
                </mxCell>
                <mxCell id="5295" style="edgeStyle=orthogonalEdgeStyle;html=1;exitX=0;exitY=0.5;exitDx=0;exitDy=0;entryX=1;entryY=0.5;entryDx=0;entryDy=0;" edge="1" parent="1" source="3" target="399">
                    <mxGeometry relative="1" as="geometry"/>
                </mxCell>
                <mxCell id="3" value="&lt;b&gt;Laptop&lt;/b&gt;" style="rounded=1;whiteSpace=wrap;html=1;" parent="1" vertex="1">
                    <mxGeometry x="-587.13" y="253.5" width="140" height="60" as="geometry"/>
                </mxCell>
                <mxCell id="8" value="&lt;u&gt;Id&lt;/u&gt;" style="ellipse;whiteSpace=wrap;html=1;rounded=1;" parent="1" vertex="1">
                    <mxGeometry x="-542" y="-531.25" width="40" height="32.5" as="geometry"/>
                </mxCell>
                <mxCell id="9" value="Fname" style="ellipse;whiteSpace=wrap;html=1;rounded=1;" parent="1" vertex="1">
                    <mxGeometry x="-716" y="-537.5" width="70" height="45" as="geometry"/>
                </mxCell>
                <mxCell id="10" value="Lname" style="ellipse;whiteSpace=wrap;html=1;rounded=1;" parent="1" vertex="1">
                    <mxGeometry x="-629" y="-540" width="70" height="50" as="geometry"/>
                </mxCell>
                <mxCell id="11" value="phone" style="ellipse;whiteSpace=wrap;html=1;rounded=1;" parent="1" vertex="1">
                    <mxGeometry x="-868" y="-535" width="70" height="45" as="geometry"/>
                </mxCell>
                <mxCell id="12" value="Date_Created" style="ellipse;whiteSpace=wrap;html=1;rounded=1;" parent="1" vertex="1">
                    <mxGeometry x="-133" y="-533" width="91" height="50" as="geometry"/>
                </mxCell>
                <mxCell id="18" value="image" style="ellipse;whiteSpace=wrap;html=1;rounded=1;" parent="1" vertex="1">
                    <mxGeometry x="-779" y="-535" width="50" height="40" as="geometry"/>
                </mxCell>
                <mxCell id="23" value="email" style="ellipse;whiteSpace=wrap;html=1;rounded=1;" parent="1" vertex="1">
                    <mxGeometry x="-318.5" y="-528" width="60" height="40" as="geometry"/>
                </mxCell>
                <mxCell id="25" value="IsAdmin" style="ellipse;whiteSpace=wrap;html=1;rounded=1;" parent="1" vertex="1">
                    <mxGeometry x="-479" y="-540" width="60" height="50" as="geometry"/>
                </mxCell>
                <mxCell id="27" value="password" style="ellipse;whiteSpace=wrap;html=1;rounded=1;" parent="1" vertex="1">
                    <mxGeometry x="-399.5" y="-548" width="70" height="60" as="geometry"/>
                </mxCell>
                <mxCell id="33" value="Rate" style="ellipse;whiteSpace=wrap;html=1;rounded=1;" parent="1" vertex="1">
                    <mxGeometry x="-370.5" y="-156" width="60" height="50" as="geometry"/>
                </mxCell>
                <mxCell id="34" value="Comment" style="ellipse;whiteSpace=wrap;html=1;rounded=1;" parent="1" vertex="1">
                    <mxGeometry x="-370.5" y="-97" width="66" height="45" as="geometry"/>
                </mxCell>
                <mxCell id="41" value="&lt;u&gt;id&lt;/u&gt;" style="ellipse;whiteSpace=wrap;html=1;rounded=1;" parent="1" vertex="1">
                    <mxGeometry x="-371.5" y="90" width="60" height="44" as="geometry"/>
                </mxCell>
                <mxCell id="48" value="description" style="ellipse;whiteSpace=wrap;html=1;rounded=1;" parent="1" vertex="1">
                    <mxGeometry x="-370.5" y="354" width="83" height="51" as="geometry"/>
                </mxCell>
                <mxCell id="141" value="photo" style="ellipse;whiteSpace=wrap;html=1;rounded=1;" parent="1" vertex="1">
                    <mxGeometry x="-370.5" y="139" width="67" height="49.5" as="geometry"/>
                </mxCell>
                <mxCell id="318" value="Date_Updated" style="ellipse;whiteSpace=wrap;html=1;rounded=1;" parent="1" vertex="1">
                    <mxGeometry x="-237.5" y="-539" width="91" height="53" as="geometry"/>
                </mxCell>
                <mxCell id="5291" style="edgeStyle=orthogonalEdgeStyle;html=1;exitX=0;exitY=0.5;exitDx=0;exitDy=0;entryX=1;entryY=0.5;entryDx=0;entryDy=0;" edge="1" parent="1" source="396" target="405">
                    <mxGeometry relative="1" as="geometry"/>
                </mxCell>
                <mxCell id="5292" style="edgeStyle=orthogonalEdgeStyle;html=1;exitX=0;exitY=0.5;exitDx=0;exitDy=0;entryX=1;entryY=0.5;entryDx=0;entryDy=0;" edge="1" parent="1" source="396" target="423">
                    <mxGeometry relative="1" as="geometry"/>
                </mxCell>
                <mxCell id="396" value="&lt;b&gt;Category&lt;/b&gt;" style="rounded=1;whiteSpace=wrap;html=1;" parent="1" vertex="1">
                    <mxGeometry x="-1086" y="261" width="113" height="47" as="geometry"/>
                </mxCell>
                <mxCell id="5296" style="edgeStyle=orthogonalEdgeStyle;html=1;exitX=0.5;exitY=0;exitDx=0;exitDy=0;entryX=0.5;entryY=1;entryDx=0;entryDy=0;" edge="1" parent="1" source="399" target="5256">
                    <mxGeometry relative="1" as="geometry"/>
                </mxCell>
                <mxCell id="5297" style="edgeStyle=orthogonalEdgeStyle;html=1;exitX=0;exitY=0.5;exitDx=0;exitDy=0;" edge="1" parent="1" source="399" target="396">
                    <mxGeometry relative="1" as="geometry"/>
                </mxCell>
                <mxCell id="399" value="have" style="rhombus;whiteSpace=wrap;html=1;rounded=1;" parent="1" vertex="1">
                    <mxGeometry x="-851.5" y="243.5" width="80" height="80" as="geometry"/>
                </mxCell>
                <mxCell id="405" value="Category_Id" style="ellipse;whiteSpace=wrap;html=1;rounded=1;" parent="1" vertex="1">
                    <mxGeometry x="-1206" y="228" width="75" height="38" as="geometry"/>
                </mxCell>
                <mxCell id="421" value="model" style="ellipse;whiteSpace=wrap;html=1;" parent="1" vertex="1">
                    <mxGeometry x="-370.5" y="250" width="80" height="52" as="geometry"/>
                </mxCell>
                <mxCell id="423" value="name" style="ellipse;whiteSpace=wrap;html=1;rounded=1;" parent="1" vertex="1">
                    <mxGeometry x="-1198" y="300" width="67" height="39" as="geometry"/>
                </mxCell>
                <mxCell id="5095" style="edgeStyle=orthogonalEdgeStyle;html=1;exitX=0;exitY=0.5;exitDx=0;exitDy=0;entryX=1;entryY=0.5;entryDx=0;entryDy=0;fontSize=15;" parent="1" source="4854" target="4858" edge="1">
                    <mxGeometry relative="1" as="geometry"/>
                </mxCell>
                <mxCell id="5096" style="edgeStyle=orthogonalEdgeStyle;html=1;exitX=0;exitY=0.5;exitDx=0;exitDy=0;entryX=1;entryY=0.5;entryDx=0;entryDy=0;fontSize=15;" parent="1" source="4854" target="4855" edge="1">
                    <mxGeometry relative="1" as="geometry"/>
                </mxCell>
                <mxCell id="5097" style="edgeStyle=orthogonalEdgeStyle;html=1;exitX=0;exitY=0.5;exitDx=0;exitDy=0;entryX=1;entryY=0.5;entryDx=0;entryDy=0;fontSize=15;" parent="1" source="4854" target="4859" edge="1">
                    <mxGeometry relative="1" as="geometry"/>
                </mxCell>
                <mxCell id="5098" style="edgeStyle=orthogonalEdgeStyle;html=1;exitX=0;exitY=0.5;exitDx=0;exitDy=0;entryX=1;entryY=0.5;entryDx=0;entryDy=0;fontSize=15;" parent="1" source="4854" target="4860" edge="1">
                    <mxGeometry relative="1" as="geometry"/>
                </mxCell>
                <mxCell id="5099" style="edgeStyle=orthogonalEdgeStyle;html=1;exitX=0;exitY=0.5;exitDx=0;exitDy=0;entryX=1;entryY=0.5;entryDx=0;entryDy=0;fontSize=15;" parent="1" source="4854" target="4856" edge="1">
                    <mxGeometry relative="1" as="geometry"/>
                </mxCell>
                <mxCell id="5110" style="edgeStyle=orthogonalEdgeStyle;html=1;exitX=0.5;exitY=1;exitDx=0;exitDy=0;entryX=0.5;entryY=0;entryDx=0;entryDy=0;fontSize=15;" parent="1" source="4854" target="4890" edge="1">
                    <mxGeometry relative="1" as="geometry"/>
                </mxCell>
                <mxCell id="5164" style="edgeStyle=orthogonalEdgeStyle;html=1;exitX=0;exitY=0.5;exitDx=0;exitDy=0;entryX=1;entryY=0.5;entryDx=0;entryDy=0;" parent="1" source="4854" target="5162" edge="1">
                    <mxGeometry relative="1" as="geometry"/>
                </mxCell>
                <mxCell id="5221" style="edgeStyle=orthogonalEdgeStyle;html=1;exitX=0;exitY=0.5;exitDx=0;exitDy=0;entryX=1;entryY=0.5;entryDx=0;entryDy=0;strokeColor=default;" parent="1" source="4854" target="5220" edge="1">
                    <mxGeometry relative="1" as="geometry"/>
                </mxCell>
                <mxCell id="5223" style="edgeStyle=orthogonalEdgeStyle;html=1;exitX=0;exitY=0.5;exitDx=0;exitDy=0;entryX=1;entryY=0.5;entryDx=0;entryDy=0;strokeColor=default;" parent="1" source="4854" target="5222" edge="1">
                    <mxGeometry relative="1" as="geometry"/>
                </mxCell>
                <mxCell id="4854" value="&lt;font style=&quot;font-size: 18px;&quot;&gt;Order&lt;/font&gt;" style="rounded=1;whiteSpace=wrap;html=1;fillColor=#6a00ff;fontColor=#ffffff;strokeColor=#3700CC;" parent="1" vertex="1">
                    <mxGeometry x="-1877.5" y="-154" width="120" height="60" as="geometry"/>
                </mxCell>
                <mxCell id="4855" value="Payment_Method" style="ellipse;whiteSpace=wrap;html=1;" parent="1" vertex="1">
                    <mxGeometry x="-2072" y="-185" width="117" height="53" as="geometry"/>
                </mxCell>
                <mxCell id="4856" value="Total_Amount" style="ellipse;whiteSpace=wrap;html=1;" parent="1" vertex="1">
                    <mxGeometry x="-2037" y="5.5" width="82" height="55" as="geometry"/>
                </mxCell>
                <mxCell id="4858" value="Order_Id" style="ellipse;whiteSpace=wrap;html=1;" parent="1" vertex="1">
                    <mxGeometry x="-2040.5" y="-323" width="82" height="55" as="geometry"/>
                </mxCell>
                <mxCell id="4859" value="Created_At" style="ellipse;whiteSpace=wrap;html=1;" parent="1" vertex="1">
                    <mxGeometry x="-2033.5" y="-117" width="75" height="48" as="geometry"/>
                </mxCell>
                <mxCell id="4860" value="Updated_At" style="ellipse;whiteSpace=wrap;html=1;" parent="1" vertex="1">
                    <mxGeometry x="-2037.5" y="-60" width="79" height="55" as="geometry"/>
                </mxCell>
                <mxCell id="5073" style="edgeStyle=orthogonalEdgeStyle;curved=1;html=1;exitX=1;exitY=1;exitDx=0;exitDy=0;entryX=0.5;entryY=0;entryDx=0;entryDy=0;fontSize=15;" parent="1" source="4862" target="5172" edge="1">
                    <mxGeometry relative="1" as="geometry"/>
                </mxCell>
                <mxCell id="5074" style="edgeStyle=orthogonalEdgeStyle;curved=1;html=1;exitX=0;exitY=1;exitDx=0;exitDy=0;fontSize=15;" parent="1" source="4862" edge="1">
                    <mxGeometry relative="1" as="geometry">
                        <mxPoint x="-1794" y="-156" as="targetPoint"/>
                    </mxGeometry>
                </mxCell>
                <mxCell id="4862" value="has" style="rhombus;whiteSpace=wrap;html=1;rounded=1;" parent="1" vertex="1">
                    <mxGeometry x="-1666" y="-309" width="80" height="80" as="geometry"/>
                </mxCell>
                <mxCell id="5112" style="edgeStyle=orthogonalEdgeStyle;html=1;exitX=0;exitY=0.5;exitDx=0;exitDy=0;entryX=1;entryY=0.5;entryDx=0;entryDy=0;fontSize=15;" parent="1" source="4870" target="4873" edge="1">
                    <mxGeometry relative="1" as="geometry"/>
                </mxCell>
                <mxCell id="5113" style="edgeStyle=orthogonalEdgeStyle;html=1;exitX=0;exitY=0.5;exitDx=0;exitDy=0;entryX=1;entryY=0.5;entryDx=0;entryDy=0;fontSize=15;" parent="1" source="4870" target="4871" edge="1">
                    <mxGeometry relative="1" as="geometry"/>
                </mxCell>
                <mxCell id="5114" style="edgeStyle=orthogonalEdgeStyle;html=1;exitX=0;exitY=0.5;exitDx=0;exitDy=0;entryX=1;entryY=0.5;entryDx=0;entryDy=0;fontSize=15;" parent="1" source="4870" target="4872" edge="1">
                    <mxGeometry relative="1" as="geometry"/>
                </mxCell>
                <mxCell id="5115" style="edgeStyle=orthogonalEdgeStyle;html=1;exitX=0;exitY=0.5;exitDx=0;exitDy=0;entryX=1;entryY=0.5;entryDx=0;entryDy=0;fontSize=15;" parent="1" source="4870" target="4874" edge="1">
                    <mxGeometry relative="1" as="geometry"/>
                </mxCell>
                <mxCell id="5116" style="edgeStyle=orthogonalEdgeStyle;html=1;exitX=0;exitY=0.5;exitDx=0;exitDy=0;entryX=1;entryY=0.5;entryDx=0;entryDy=0;fontSize=15;" parent="1" source="4870" target="4875" edge="1">
                    <mxGeometry relative="1" as="geometry"/>
                </mxCell>
                <mxCell id="5117" style="edgeStyle=orthogonalEdgeStyle;html=1;exitX=0.5;exitY=1;exitDx=0;exitDy=0;entryX=0.5;entryY=0;entryDx=0;entryDy=0;fontSize=15;" parent="1" source="4870" target="4921" edge="1">
                    <mxGeometry relative="1" as="geometry"/>
                </mxCell>
                <mxCell id="4870" value="&lt;font style=&quot;font-size: 18px;&quot;&gt;OrderItem&lt;/font&gt;" style="rounded=1;whiteSpace=wrap;html=1;fillColor=#6a00ff;fontColor=#ffffff;strokeColor=#3700CC;" parent="1" vertex="1">
                    <mxGeometry x="-1877.5" y="279" width="120" height="60" as="geometry"/>
                </mxCell>
                <mxCell id="4871" value="Total_Price" style="ellipse;whiteSpace=wrap;html=1;" parent="1" vertex="1">
                    <mxGeometry x="-2067.5" y="312.5" width="88" height="58" as="geometry"/>
                </mxCell>
                <mxCell id="4872" value="quantity" style="ellipse;whiteSpace=wrap;html=1;" parent="1" vertex="1">
                    <mxGeometry x="-2067.5" y="378" width="88" height="58" as="geometry"/>
                </mxCell>
                <mxCell id="4873" value="Order_Item_Id" style="ellipse;whiteSpace=wrap;html=1;" parent="1" vertex="1">
                    <mxGeometry x="-2067.5" y="246.5" width="88" height="58" as="geometry"/>
                </mxCell>
                <mxCell id="4874" value="Created_At" style="ellipse;whiteSpace=wrap;html=1;" parent="1" vertex="1">
                    <mxGeometry x="-2054.5" y="444" width="75" height="48" as="geometry"/>
                </mxCell>
                <mxCell id="4875" value="Updated_At" style="ellipse;whiteSpace=wrap;html=1;" parent="1" vertex="1">
                    <mxGeometry x="-2057.5" y="504" width="79" height="48" as="geometry"/>
                </mxCell>
                <mxCell id="5081" style="edgeStyle=orthogonalEdgeStyle;html=1;exitX=0;exitY=0.5;exitDx=0;exitDy=0;entryX=1;entryY=0.5;entryDx=0;entryDy=0;fontSize=15;" parent="1" source="4880" target="5067" edge="1">
                    <mxGeometry relative="1" as="geometry"/>
                </mxCell>
                <mxCell id="5082" style="edgeStyle=orthogonalEdgeStyle;html=1;exitX=0;exitY=0.5;exitDx=0;exitDy=0;fontSize=15;entryX=1;entryY=0.5;entryDx=0;entryDy=0;" parent="1" source="4880" target="5065" edge="1">
                    <mxGeometry relative="1" as="geometry"/>
                </mxCell>
                <mxCell id="5083" style="edgeStyle=orthogonalEdgeStyle;html=1;exitX=0;exitY=0.5;exitDx=0;exitDy=0;entryX=1;entryY=0.5;entryDx=0;entryDy=0;fontSize=15;" parent="1" source="4880" target="5064" edge="1">
                    <mxGeometry relative="1" as="geometry"/>
                </mxCell>
                <mxCell id="5084" style="edgeStyle=orthogonalEdgeStyle;html=1;exitX=0;exitY=0.5;exitDx=0;exitDy=0;entryX=1;entryY=0.5;entryDx=0;entryDy=0;fontSize=15;" parent="1" source="4880" target="5063" edge="1">
                    <mxGeometry relative="1" as="geometry"/>
                </mxCell>
                <mxCell id="5085" style="edgeStyle=orthogonalEdgeStyle;html=1;exitX=0;exitY=0.5;exitDx=0;exitDy=0;entryX=1;entryY=0.5;entryDx=0;entryDy=0;fontSize=15;" parent="1" source="4880" target="5066" edge="1">
                    <mxGeometry relative="1" as="geometry"/>
                </mxCell>
                <mxCell id="5086" style="edgeStyle=orthogonalEdgeStyle;html=1;exitX=0;exitY=0.5;exitDx=0;exitDy=0;entryX=1;entryY=0.5;entryDx=0;entryDy=0;fontSize=15;" parent="1" source="4880" target="5068" edge="1">
                    <mxGeometry relative="1" as="geometry"/>
                </mxCell>
                <mxCell id="4880" value="&lt;font style=&quot;font-size: 17px;&quot;&gt;User_Card&lt;/font&gt;" style="rounded=1;whiteSpace=wrap;html=1;" parent="1" vertex="1">
                    <mxGeometry x="-1173" y="-670" width="120" height="60" as="geometry"/>
                </mxCell>
                <mxCell id="5111" style="edgeStyle=orthogonalEdgeStyle;html=1;exitX=0.5;exitY=1;exitDx=0;exitDy=0;entryX=0.5;entryY=0;entryDx=0;entryDy=0;fontSize=15;" parent="1" source="4890" target="4870" edge="1">
                    <mxGeometry relative="1" as="geometry"/>
                </mxCell>
                <mxCell id="4890" value="has" style="rhombus;whiteSpace=wrap;html=1;" parent="1" vertex="1">
                    <mxGeometry x="-1857.5" y="-7" width="80" height="80" as="geometry"/>
                </mxCell>
                <mxCell id="4921" value="have" style="rhombus;whiteSpace=wrap;html=1;rounded=1;" parent="1" vertex="1">
                    <mxGeometry x="-1857.5" y="419.5" width="80" height="80" as="geometry"/>
                </mxCell>
                <mxCell id="5108" style="edgeStyle=orthogonalEdgeStyle;html=1;exitX=0.5;exitY=1;exitDx=0;exitDy=0;entryX=0.5;entryY=0;entryDx=0;entryDy=0;fontSize=15;" parent="1" source="4969" target="4976" edge="1">
                    <mxGeometry relative="1" as="geometry"/>
                </mxCell>
                <mxCell id="5150" style="edgeStyle=orthogonalEdgeStyle;html=1;exitX=0;exitY=0.5;exitDx=0;exitDy=0;entryX=1;entryY=0.5;entryDx=0;entryDy=0;fontSize=15;" parent="1" source="4969" target="5147" edge="1">
                    <mxGeometry relative="1" as="geometry"/>
                </mxCell>
                <mxCell id="5151" style="edgeStyle=orthogonalEdgeStyle;html=1;exitX=0;exitY=0.5;exitDx=0;exitDy=0;entryX=1;entryY=0.5;entryDx=0;entryDy=0;fontSize=15;" parent="1" source="4969" target="5145" edge="1">
                    <mxGeometry relative="1" as="geometry"/>
                </mxCell>
                <mxCell id="5153" style="edgeStyle=orthogonalEdgeStyle;html=1;exitX=0;exitY=0.5;exitDx=0;exitDy=0;entryX=1;entryY=0.5;entryDx=0;entryDy=0;fontSize=15;" parent="1" source="4969" target="5148" edge="1">
                    <mxGeometry relative="1" as="geometry"/>
                </mxCell>
                <mxCell id="5154" style="edgeStyle=orthogonalEdgeStyle;html=1;exitX=0;exitY=0.5;exitDx=0;exitDy=0;entryX=1;entryY=0.5;entryDx=0;entryDy=0;fontSize=15;" parent="1" source="4969" target="5149" edge="1">
                    <mxGeometry relative="1" as="geometry"/>
                </mxCell>
                <mxCell id="4969" value="&lt;font style=&quot;font-size: 15px;&quot;&gt;Cart_Item&lt;/font&gt;" style="rounded=1;whiteSpace=wrap;html=1;fillColor=#6a00ff;fontColor=#ffffff;strokeColor=#3700CC;" parent="1" vertex="1">
                    <mxGeometry x="-1484" y="272" width="120" height="60" as="geometry"/>
                </mxCell>
                <mxCell id="4976" value="have" style="rhombus;whiteSpace=wrap;html=1;rounded=1;" parent="1" vertex="1">
                    <mxGeometry x="-1464" y="422" width="80" height="80" as="geometry"/>
                </mxCell>
                <mxCell id="5063" value="Updated_At" style="ellipse;whiteSpace=wrap;html=1;" parent="1" vertex="1">
                    <mxGeometry x="-1317.5" y="-718" width="79" height="48" as="geometry"/>
                </mxCell>
                <mxCell id="5064" value="Card_Expiry_Date" style="ellipse;whiteSpace=wrap;html=1;" parent="1" vertex="1">
                    <mxGeometry x="-1339.5" y="-847" width="105" height="52" as="geometry"/>
                </mxCell>
                <mxCell id="5065" value="Card_Number" style="ellipse;whiteSpace=wrap;html=1;" parent="1" vertex="1">
                    <mxGeometry x="-1319" y="-926" width="82" height="50" as="geometry"/>
                </mxCell>
                <mxCell id="5066" value="Card_Holder_Name" style="ellipse;whiteSpace=wrap;html=1;" parent="1" vertex="1">
                    <mxGeometry x="-1351" y="-787" width="113" height="57" as="geometry"/>
                </mxCell>
                <mxCell id="5067" value="Card_Id" style="ellipse;whiteSpace=wrap;html=1;" parent="1" vertex="1">
                    <mxGeometry x="-1300" y="-985" width="62" height="47" as="geometry"/>
                </mxCell>
                <mxCell id="5068" value="Created_At" style="ellipse;whiteSpace=wrap;html=1;" parent="1" vertex="1">
                    <mxGeometry x="-1321" y="-664" width="75" height="48" as="geometry"/>
                </mxCell>
                <mxCell id="5135" value="" style="edgeStyle=orthogonalEdgeStyle;html=1;exitX=0.5;exitY=1;exitDx=0;exitDy=0;entryX=-0.02;entryY=0.486;entryDx=0;entryDy=0;fontSize=15;endArrow=none;entryPerimeter=0;" parent="1" source="4976" target="4929" edge="1">
                    <mxGeometry relative="1" as="geometry">
                        <mxPoint x="-1424" y="501.9999999999998" as="sourcePoint"/>
                        <mxPoint x="-1179" y="652.5" as="targetPoint"/>
                        <Array as="points">
                            <mxPoint x="-1424" y="630"/>
                        </Array>
                    </mxGeometry>
                </mxCell>
                <mxCell id="4929" value="&lt;b&gt;&lt;font color=&quot;#f91515&quot;&gt;1&lt;/font&gt;&lt;/b&gt;" style="text;html=1;align=center;verticalAlign=middle;resizable=0;points=[];autosize=1;strokeColor=none;fillColor=none;rounded=1;arcSize=50;" parent="1" vertex="1">
                    <mxGeometry x="-1246" y="617" width="25" height="26" as="geometry"/>
                </mxCell>
                <mxCell id="5137" value="" style="edgeStyle=orthogonalEdgeStyle;html=1;exitX=0.5;exitY=1;exitDx=0;exitDy=0;fontSize=15;endArrow=none;strokeColor=default;" parent="1" source="4921" edge="1">
                    <mxGeometry relative="1" as="geometry">
                        <mxPoint x="-1817.5" y="499.5" as="sourcePoint"/>
                        <mxPoint x="-1245" y="669" as="targetPoint"/>
                        <Array as="points">
                            <mxPoint x="-1817" y="669"/>
                        </Array>
                    </mxGeometry>
                </mxCell>
                <mxCell id="5136" value="&lt;b&gt;&lt;font color=&quot;#f91515&quot;&gt;1&lt;/font&gt;&lt;/b&gt;" style="text;html=1;align=center;verticalAlign=middle;resizable=0;points=[];autosize=1;strokeColor=none;fillColor=none;rounded=1;arcSize=0;" parent="1" vertex="1">
                    <mxGeometry x="-1246" y="656" width="25" height="26" as="geometry"/>
                </mxCell>
                <mxCell id="5139" value="&lt;b&gt;&lt;font color=&quot;#f91515&quot;&gt;M&lt;/font&gt;&lt;/b&gt;" style="text;html=1;align=center;verticalAlign=middle;resizable=0;points=[];autosize=1;strokeColor=none;fillColor=none;rounded=1;arcSize=0;" parent="1" vertex="1">
                    <mxGeometry x="-1110" y="-606" width="28" height="26" as="geometry"/>
                </mxCell>
                <mxCell id="5140" value="&lt;b&gt;&lt;font color=&quot;#f91515&quot;&gt;M&lt;/font&gt;&lt;/b&gt;" style="text;html=1;align=center;verticalAlign=middle;resizable=0;points=[];autosize=1;strokeColor=none;fillColor=none;rounded=1;arcSize=0;" parent="1" vertex="1">
                    <mxGeometry x="-1785.5" y="-203.5" width="28" height="26" as="geometry"/>
                </mxCell>
                <mxCell id="5143" value="&lt;b&gt;&lt;font color=&quot;#f91515&quot;&gt;M&lt;/font&gt;&lt;/b&gt;" style="text;html=1;align=center;verticalAlign=middle;resizable=0;points=[];autosize=1;strokeColor=none;fillColor=none;rounded=1;arcSize=50;" parent="1" vertex="1">
                    <mxGeometry x="-1425.5" y="337.25" width="28" height="26" as="geometry"/>
                </mxCell>
                <mxCell id="5144" value="&lt;b&gt;&lt;font color=&quot;#f91515&quot;&gt;M&lt;/font&gt;&lt;/b&gt;" style="text;html=1;align=center;verticalAlign=middle;resizable=0;points=[];autosize=1;strokeColor=none;fillColor=none;rounded=1;arcSize=50;" parent="1" vertex="1">
                    <mxGeometry x="-1805.5" y="356.5" width="28" height="26" as="geometry"/>
                </mxCell>
                <mxCell id="5145" value="quantity" style="ellipse;whiteSpace=wrap;html=1;" parent="1" vertex="1">
                    <mxGeometry x="-1649" y="316" width="88" height="58" as="geometry"/>
                </mxCell>
                <mxCell id="5147" value="Card_Item_Id" style="ellipse;whiteSpace=wrap;html=1;" parent="1" vertex="1">
                    <mxGeometry x="-1649" y="250" width="88" height="58" as="geometry"/>
                </mxCell>
                <mxCell id="5148" value="Created_At" style="ellipse;whiteSpace=wrap;html=1;" parent="1" vertex="1">
                    <mxGeometry x="-1637" y="383" width="75" height="48" as="geometry"/>
                </mxCell>
                <mxCell id="5149" value="Updated_At" style="ellipse;whiteSpace=wrap;html=1;" parent="1" vertex="1">
                    <mxGeometry x="-1637.5" y="433" width="79" height="48" as="geometry"/>
                </mxCell>
                <mxCell id="5156" value="&lt;b&gt;&lt;font style=&quot;font-size: 15px;&quot;&gt;1&lt;/font&gt;&lt;/b&gt;" style="text;html=1;align=center;verticalAlign=middle;resizable=0;points=[];autosize=1;strokeColor=none;fillColor=none;fontColor=#f91515;rounded=1;arcSize=0;strokeWidth=5;" parent="1" vertex="1">
                    <mxGeometry x="-1799.25" y="-80" width="26" height="30" as="geometry"/>
                </mxCell>
                <mxCell id="5158" value="&lt;b&gt;&lt;font color=&quot;#f91515&quot;&gt;M&lt;/font&gt;&lt;/b&gt;" style="text;html=1;align=center;verticalAlign=middle;resizable=0;points=[];autosize=1;strokeColor=none;fillColor=none;rounded=1;arcSize=0;" parent="1" vertex="1">
                    <mxGeometry x="-1807" y="239" width="28" height="26" as="geometry"/>
                </mxCell>
                <mxCell id="5159" value="&lt;b&gt;&lt;font color=&quot;#f91515&quot;&gt;M&lt;/font&gt;&lt;/b&gt;" style="text;html=1;align=center;verticalAlign=middle;resizable=0;points=[];autosize=1;strokeColor=none;fillColor=none;rounded=1;arcSize=50;" parent="1" vertex="1">
                    <mxGeometry x="-1424" y="243" width="28" height="26" as="geometry"/>
                </mxCell>
                <mxCell id="5162" value="Status" style="ellipse;whiteSpace=wrap;html=1;" parent="1" vertex="1">
                    <mxGeometry x="-2037" y="73" width="82" height="55" as="geometry"/>
                </mxCell>
                <mxCell id="5166" style="edgeStyle=orthogonalEdgeStyle;html=1;exitX=0.5;exitY=1;exitDx=0;exitDy=0;entryX=0.5;entryY=0;entryDx=0;entryDy=0;fontSize=15;" parent="1" source="5172" target="5173" edge="1">
                    <mxGeometry relative="1" as="geometry"/>
                </mxCell>
                <mxCell id="5167" style="edgeStyle=orthogonalEdgeStyle;html=1;exitX=0;exitY=0.5;exitDx=0;exitDy=0;entryX=1;entryY=0.5;entryDx=0;entryDy=0;fontSize=15;" parent="1" source="5172" target="5177" edge="1">
                    <mxGeometry relative="1" as="geometry"/>
                </mxCell>
                <mxCell id="5170" style="edgeStyle=orthogonalEdgeStyle;html=1;exitX=0;exitY=0.5;exitDx=0;exitDy=0;entryX=1;entryY=0.5;entryDx=0;entryDy=0;fontSize=15;" parent="1" source="5172" target="5178" edge="1">
                    <mxGeometry relative="1" as="geometry"/>
                </mxCell>
                <mxCell id="5171" style="edgeStyle=orthogonalEdgeStyle;html=1;exitX=0;exitY=0.5;exitDx=0;exitDy=0;entryX=1;entryY=0.5;entryDx=0;entryDy=0;fontSize=15;" parent="1" source="5172" target="5179" edge="1">
                    <mxGeometry relative="1" as="geometry"/>
                </mxCell>
                <mxCell id="5172" value="&lt;font style=&quot;font-size: 15px;&quot;&gt;Cart&lt;br&gt;&lt;/font&gt;" style="rounded=1;whiteSpace=wrap;html=1;fillColor=#6a00ff;fontColor=#ffffff;strokeColor=#3700CC;" parent="1" vertex="1">
                    <mxGeometry x="-1484" y="-143" width="120" height="60" as="geometry"/>
                </mxCell>
                <mxCell id="5218" style="edgeStyle=orthogonalEdgeStyle;html=1;exitX=0.5;exitY=1;exitDx=0;exitDy=0;entryX=0.5;entryY=0;entryDx=0;entryDy=0;strokeColor=default;" parent="1" source="5173" target="4969" edge="1">
                    <mxGeometry relative="1" as="geometry"/>
                </mxCell>
                <mxCell id="5173" value="have" style="rhombus;whiteSpace=wrap;html=1;rounded=1;" parent="1" vertex="1">
                    <mxGeometry x="-1464" y="4.5" width="80" height="80" as="geometry"/>
                </mxCell>
                <mxCell id="5177" value="Cart_Id" style="ellipse;whiteSpace=wrap;html=1;" parent="1" vertex="1">
                    <mxGeometry x="-1658" y="-167.5" width="88" height="58" as="geometry"/>
                </mxCell>
                <mxCell id="5178" value="Created_At" style="ellipse;whiteSpace=wrap;html=1;" parent="1" vertex="1">
                    <mxGeometry x="-1645" y="-97" width="75" height="48" as="geometry"/>
                </mxCell>
                <mxCell id="5179" value="Updated_At" style="ellipse;whiteSpace=wrap;html=1;" parent="1" vertex="1">
                    <mxGeometry x="-1649" y="-43.5" width="79" height="48" as="geometry"/>
                </mxCell>
                <mxCell id="5216" style="edgeStyle=orthogonalEdgeStyle;html=1;exitX=0.5;exitY=0;exitDx=0;exitDy=0;entryX=0.5;entryY=1;entryDx=0;entryDy=0;strokeColor=default;" parent="1" source="5214" target="4880" edge="1">
                    <mxGeometry relative="1" as="geometry"/>
                </mxCell>
                <mxCell id="5214" value="has" style="rhombus;whiteSpace=wrap;html=1;rounded=1;" parent="1" vertex="1">
                    <mxGeometry x="-1153" y="-498.75" width="80" height="80" as="geometry"/>
                </mxCell>
                <mxCell id="5217" value="&lt;b&gt;&lt;font color=&quot;#f91515&quot;&gt;1&lt;/font&gt;&lt;/b&gt;" style="text;html=1;align=center;verticalAlign=middle;resizable=0;points=[];autosize=1;strokeColor=none;fillColor=none;rounded=1;arcSize=0;" parent="1" vertex="1">
                    <mxGeometry x="-1420" y="-169" width="25" height="26" as="geometry"/>
                </mxCell>
                <mxCell id="5219" value="&lt;b&gt;&lt;font color=&quot;#f91515&quot;&gt;1&lt;/font&gt;&lt;/b&gt;" style="text;html=1;align=center;verticalAlign=middle;resizable=0;points=[];autosize=1;strokeColor=none;fillColor=none;rounded=1;arcSize=0;" parent="1" vertex="1">
                    <mxGeometry x="-1424" y="-83" width="25" height="26" as="geometry"/>
                </mxCell>
                <mxCell id="5220" value="Shipping_address_id" style="ellipse;whiteSpace=wrap;html=1;" parent="1" vertex="1">
                    <mxGeometry x="-2091" y="137" width="136" height="69" as="geometry"/>
                </mxCell>
                <mxCell id="5222" value="Card_id" style="ellipse;whiteSpace=wrap;html=1;" parent="1" vertex="1">
                    <mxGeometry x="-2040.5" y="-254" width="82" height="55" as="geometry"/>
                </mxCell>
                <mxCell id="5263" style="edgeStyle=orthogonalEdgeStyle;html=1;exitX=0.5;exitY=1;exitDx=0;exitDy=0;entryX=0.5;entryY=0;entryDx=0;entryDy=0;" edge="1" parent="1" source="5227" target="5261">
                    <mxGeometry relative="1" as="geometry"/>
                </mxCell>
                <mxCell id="5227" value="has" style="rhombus;whiteSpace=wrap;html=1;rounded=1;" parent="1" vertex="1">
                    <mxGeometry x="-557.13" y="-201" width="80" height="80" as="geometry"/>
                </mxCell>
                <mxCell id="5233" value="price" style="ellipse;whiteSpace=wrap;html=1;" parent="1" vertex="1">
                    <mxGeometry x="-370.5" y="308" width="62" height="47" as="geometry"/>
                </mxCell>
                <mxCell id="5235" value="Date_created" style="ellipse;whiteSpace=wrap;html=1;" parent="1" vertex="1">
                    <mxGeometry x="-371.5" y="414" width="75" height="48" as="geometry"/>
                </mxCell>
                <mxCell id="5236" value="Stock_Quantity" style="ellipse;whiteSpace=wrap;html=1;" parent="1" vertex="1">
                    <mxGeometry x="-370.5" y="195" width="95" height="48" as="geometry"/>
                </mxCell>
                <mxCell id="5237" value="Date_updated" style="ellipse;whiteSpace=wrap;html=1;" parent="1" vertex="1">
                    <mxGeometry x="-471" y="469" width="79" height="48" as="geometry"/>
                </mxCell>
                <mxCell id="5293" style="edgeStyle=orthogonalEdgeStyle;html=1;exitX=0.5;exitY=0;exitDx=0;exitDy=0;entryX=0.5;entryY=1;entryDx=0;entryDy=0;" edge="1" parent="1" source="5256" target="5257">
                    <mxGeometry relative="1" as="geometry"/>
                </mxCell>
                <mxCell id="5294" style="edgeStyle=orthogonalEdgeStyle;html=1;exitX=0.5;exitY=0;exitDx=0;exitDy=0;entryX=0.5;entryY=1;entryDx=0;entryDy=0;" edge="1" parent="1" source="5256" target="5258">
                    <mxGeometry relative="1" as="geometry"/>
                </mxCell>
                <mxCell id="5256" value="&lt;b&gt;Brand&lt;br&gt;&lt;/b&gt;" style="rounded=1;whiteSpace=wrap;html=1;" vertex="1" parent="1">
                    <mxGeometry x="-868" y="25" width="113" height="47" as="geometry"/>
                </mxCell>
                <mxCell id="5257" value="Brand_Id" style="ellipse;whiteSpace=wrap;html=1;rounded=1;" vertex="1" parent="1">
                    <mxGeometry x="-804" y="-69" width="83" height="51" as="geometry"/>
                </mxCell>
                <mxCell id="5258" value="Brand_Name" style="ellipse;whiteSpace=wrap;html=1;rounded=1;" vertex="1" parent="1">
                    <mxGeometry x="-913" y="-69" width="83" height="51" as="geometry"/>
                </mxCell>
                <mxCell id="5264" style="edgeStyle=orthogonalEdgeStyle;html=1;exitX=1;exitY=0.5;exitDx=0;exitDy=0;entryX=0;entryY=0.5;entryDx=0;entryDy=0;" edge="1" parent="1" source="5261" target="33">
                    <mxGeometry relative="1" as="geometry"/>
                </mxCell>
                <mxCell id="5265" style="edgeStyle=orthogonalEdgeStyle;html=1;exitX=1;exitY=0.5;exitDx=0;exitDy=0;entryX=0;entryY=0.5;entryDx=0;entryDy=0;" edge="1" parent="1" source="5261" target="34">
                    <mxGeometry relative="1" as="geometry"/>
                </mxCell>
                <mxCell id="5269" style="edgeStyle=orthogonalEdgeStyle;html=1;exitX=1;exitY=0.5;exitDx=0;exitDy=0;entryX=0;entryY=0.5;entryDx=0;entryDy=0;" edge="1" parent="1" source="5261" target="5267">
                    <mxGeometry relative="1" as="geometry"/>
                </mxCell>
                <mxCell id="5270" style="edgeStyle=orthogonalEdgeStyle;html=1;exitX=1;exitY=0.5;exitDx=0;exitDy=0;entryX=0;entryY=0.5;entryDx=0;entryDy=0;" edge="1" parent="1" source="5261" target="5268">
                    <mxGeometry relative="1" as="geometry"/>
                </mxCell>
                <mxCell id="5306" style="edgeStyle=orthogonalEdgeStyle;html=1;exitX=0.5;exitY=1;exitDx=0;exitDy=0;entryX=0.5;entryY=0;entryDx=0;entryDy=0;" edge="1" parent="1" source="5261" target="5305">
                    <mxGeometry relative="1" as="geometry"/>
                </mxCell>
                <mxCell id="5261" value="&lt;b&gt;Rating&lt;/b&gt;" style="rounded=1;whiteSpace=wrap;html=1;" vertex="1" parent="1">
                    <mxGeometry x="-587.13" y="-46" width="140" height="60" as="geometry"/>
                </mxCell>
                <mxCell id="5267" value="Date_Updated" style="ellipse;whiteSpace=wrap;html=1;rounded=1;" vertex="1" parent="1">
                    <mxGeometry x="-370.5" y="-46" width="91" height="53" as="geometry"/>
                </mxCell>
                <mxCell id="5268" value="Date_Created" style="ellipse;whiteSpace=wrap;html=1;rounded=1;" vertex="1" parent="1">
                    <mxGeometry x="-370.5" y="19.5" width="91" height="50" as="geometry"/>
                </mxCell>
                <mxCell id="5271" value="Storage" style="ellipse;whiteSpace=wrap;html=1;" vertex="1" parent="1">
                    <mxGeometry x="-834" y="471" width="80" height="52" as="geometry"/>
                </mxCell>
                <mxCell id="5272" value="RAM" style="ellipse;whiteSpace=wrap;html=1;" vertex="1" parent="1">
                    <mxGeometry x="-745" y="469" width="80" height="52" as="geometry"/>
                </mxCell>
                <mxCell id="5273" value="GPU" style="ellipse;whiteSpace=wrap;html=1;" vertex="1" parent="1">
                    <mxGeometry x="-653" y="471" width="80" height="52" as="geometry"/>
                </mxCell>
                <mxCell id="5274" value="CPU" style="ellipse;whiteSpace=wrap;html=1;" vertex="1" parent="1">
                    <mxGeometry x="-562" y="469" width="80" height="52" as="geometry"/>
                </mxCell>
                <mxCell id="5288" value="Average_Rating" style="ellipse;whiteSpace=wrap;html=1;" vertex="1" parent="1">
                    <mxGeometry x="-943" y="472" width="106" height="51" as="geometry"/>
                </mxCell>
                <mxCell id="5298" value="&lt;b&gt;&lt;font color=&quot;#f91515&quot;&gt;1&lt;/font&gt;&lt;/b&gt;" style="text;html=1;align=center;verticalAlign=middle;resizable=0;points=[];autosize=1;strokeColor=none;fillColor=none;rounded=1;arcSize=0;" vertex="1" parent="1">
                    <mxGeometry x="-806.5" y="80" width="25" height="26" as="geometry"/>
                </mxCell>
                <mxCell id="5299" value="&lt;b&gt;&lt;font color=&quot;#f91515&quot;&gt;1&lt;/font&gt;&lt;/b&gt;" style="text;html=1;align=center;verticalAlign=middle;resizable=0;points=[];autosize=1;strokeColor=none;fillColor=none;rounded=1;arcSize=0;" vertex="1" parent="1">
                    <mxGeometry x="-963" y="250" width="25" height="26" as="geometry"/>
                </mxCell>
                <mxCell id="5300" value="&lt;b&gt;&lt;font color=&quot;#f91515&quot;&gt;M&lt;/font&gt;&lt;/b&gt;" style="text;html=1;align=center;verticalAlign=middle;resizable=0;points=[];autosize=1;strokeColor=none;fillColor=none;rounded=1;arcSize=0;" vertex="1" parent="1">
                    <mxGeometry x="-620" y="253" width="28" height="26" as="geometry"/>
                </mxCell>
                <mxCell id="5302" value="&lt;b&gt;&lt;font color=&quot;#f91515&quot;&gt;1&lt;/font&gt;&lt;/b&gt;" style="text;html=1;align=center;verticalAlign=middle;resizable=0;points=[];autosize=1;strokeColor=none;fillColor=none;rounded=1;arcSize=0;" vertex="1" parent="1">
                    <mxGeometry x="-515" y="224" width="25" height="26" as="geometry"/>
                </mxCell>
                <mxCell id="5303" value="&lt;b&gt;&lt;font color=&quot;#f91515&quot;&gt;M&lt;/font&gt;&lt;/b&gt;" style="text;html=1;align=center;verticalAlign=middle;resizable=0;points=[];autosize=1;strokeColor=none;fillColor=none;rounded=1;arcSize=0;" vertex="1" parent="1">
                    <mxGeometry x="-510" y="-76" width="28" height="26" as="geometry"/>
                </mxCell>
                <mxCell id="5307" style="edgeStyle=orthogonalEdgeStyle;html=1;exitX=0.5;exitY=1;exitDx=0;exitDy=0;entryX=0.5;entryY=0;entryDx=0;entryDy=0;" edge="1" parent="1" source="5305" target="3">
                    <mxGeometry relative="1" as="geometry"/>
                </mxCell>
                <mxCell id="5305" value="has" style="rhombus;whiteSpace=wrap;html=1;rounded=1;" vertex="1" parent="1">
                    <mxGeometry x="-557.13" y="101" width="80" height="80" as="geometry"/>
                </mxCell>
                <mxCell id="5309" value="&lt;b&gt;&lt;font color=&quot;#f91515&quot;&gt;1&lt;/font&gt;&lt;/b&gt;" style="text;html=1;align=center;verticalAlign=middle;resizable=0;points=[];autosize=1;strokeColor=none;fillColor=none;rounded=1;arcSize=0;" vertex="1" parent="1">
                    <mxGeometry x="-515" y="-323" width="25" height="26" as="geometry"/>
                </mxCell>
            </root>
        </mxGraphModel>
    </diagram>
</mxfile>